<svg preserveAspectRatio="none" width="100%" height="100%" overflow="visible" style="display: block;" viewBox="0 0 47.9982 48.0001" fill="none" xmlns="http://www.w3.org/2000/svg">
<path id="Exclude" d="M24.0088 6.60239e-05C27.1614 -0.00735501 30.2841 0.610885 33.1963 1.81843C36.1086 3.02606 38.7533 4.7989 40.9756 7.03522C43.2103 9.25932 44.9811 11.9051 46.1865 14.8184C47.392 17.7319 48.0081 20.8559 47.9981 24.0089C47.9929 37.2372 37.2267 48.0001 23.999 48.0001H23.9903C19.683 47.9977 15.4591 46.8415 11.7754 44.6553L10.8985 44.1358L1.81545 46.5176L4.24026 37.6651L3.66897 36.7569C1.26571 32.9326 -0.00649431 28.5061 2.49299e-05 23.9893C0.0048201 10.7617 10.771 6.60239e-05 24.0088 6.60239e-05ZM14.4209 11.6964C13.9702 11.6964 13.2373 11.8635 12.6182 12.5303C11.9988 13.1974 10.253 14.8094 10.253 18.087C10.2531 21.3649 12.6742 24.5325 13.0117 24.9776C13.3492 25.4227 17.6877 32.3635 24.5576 35.0342C30.2662 37.2535 31.4285 36.8122 32.668 36.7012C33.9077 36.5903 36.6676 35.0901 37.2305 33.5342C37.7933 31.9784 37.7938 30.645 37.625 30.3663C37.4563 30.0876 37.0053 29.9222 36.3291 29.5889C35.6527 29.2555 32.3295 27.6435 31.71 27.421C31.0907 27.1985 30.6405 27.0883 30.1895 27.7549C29.7384 28.4218 28.4443 29.9216 28.0498 30.3663C27.6554 30.811 27.2614 30.8673 26.585 30.5342C25.9083 30.2011 23.7323 29.497 21.1504 27.2276C19.1413 25.4615 17.7845 23.2798 17.3897 22.6133C16.9952 21.9471 17.3486 21.5859 17.6875 21.254C17.9908 20.9553 18.3627 20.4757 18.7012 20.087C19.0397 19.6982 19.1511 19.4204 19.376 18.9766C19.6009 18.5328 19.4894 18.1426 19.3203 17.8096C19.1512 17.4766 17.8381 14.1814 17.2373 12.8633C16.7307 11.754 16.1971 11.7312 15.7158 11.712L14.4209 11.6964Z" fill="var(--fill-0, white)"/>
</svg>
