<svg preserveAspectRatio="none" width="100%" height="100%" overflow="visible" style="display: block;" viewBox="0 0 102.781 102.692" fill="none" xmlns="http://www.w3.org/2000/svg">
<g id="Frame 13">
<path id="Vector" d="M51.3905 102.692C79.7728 102.692 102.781 79.704 102.781 51.3462C102.781 22.9885 79.7728 0 51.3905 0C23.0083 0 0 22.9885 0 51.3462C0 79.704 23.0083 102.692 51.3905 102.692Z" fill="var(--fill-0, white)"/>
<path id="Vector_2" d="M35.0231 60.4511L22.3538 56.7818C22.3538 56.7818 20.8358 56.2237 21.2729 54.8308C21.3629 54.5436 21.5552 54.2954 22.1408 53.8605C24.8547 51.8351 72.9113 32.775 72.9113 32.775C72.9113 32.775 74.2692 32.2676 75.0892 32.5486C75.2915 32.6039 75.4756 32.712 75.6224 32.8618C75.7692 33.0116 75.8736 33.1976 75.9249 33.4009C76.0243 33.7597 76.0731 34.1306 76.0699 34.5028C76.0767 34.8246 76.0475 35.1239 76.0333 35.5923C75.8941 40.3768 68.2021 76.3033 68.2021 76.3033C68.2021 76.3033 67.7403 78.4059 65.8426 78.5397C65.3762 78.5701 64.9084 78.5063 64.4672 78.3522C64.026 78.1981 63.6203 77.9568 63.2744 77.6427C59.4405 74.5607 46.2691 66.3304 43.3589 64.5208C43.2933 64.4792 43.2373 64.424 43.1948 64.3589C43.1523 64.2938 43.1243 64.2204 43.1126 64.1436C43.0662 63.9443 43.2763 63.6887 43.2763 63.6887C43.2763 63.6887 65.0607 43.0236 65.5891 40.9119C65.63 40.7483 65.4527 40.6741 65.2205 40.7528C63.7481 41.3495 38.4476 58.4991 35.6553 60.3919C35.4521 60.4606 35.2356 60.4809 35.0231 60.4511Z" fill="url(#paint0_linear_2042_211)"/>
<path id="Vector_3" d="M34.9039 55.6946L22.362 51.6117C22.362 51.6117 20.8631 51.0041 21.3458 49.6263C21.4451 49.3422 21.6455 49.1005 22.2451 48.685C25.024 46.7497 73.681 29.2761 73.681 29.2761C73.681 29.2761 75.0549 28.8136 75.8651 29.1212C76.0656 29.1832 76.2459 29.2973 76.3878 29.4518C76.5296 29.6063 76.6278 29.7956 76.6724 30.0005C76.7599 30.3624 76.7965 30.7346 76.7812 31.1066C76.7773 31.4284 76.7383 31.7266 76.7088 32.1943C76.4124 36.9716 67.5441 72.6265 67.5441 72.6265C67.5441 72.6265 67.0135 74.7128 65.1125 74.7843C64.6453 74.7994 64.1799 74.7203 63.744 74.5518C63.308 74.3833 62.9105 74.1288 62.5751 73.8036C58.8446 70.5974 45.9507 61.9396 43.1015 60.0355C43.0372 59.9917 42.9831 59.9347 42.9428 59.8683C42.9024 59.8019 42.8768 59.7276 42.8677 59.6504C42.8279 59.4497 43.0463 59.2011 43.0463 59.2011C43.0463 59.2011 65.4979 39.2617 66.0954 37.1685C66.1416 37.0063 65.9669 36.9263 65.7322 36.9973C64.241 37.5454 38.3907 53.856 35.5377 55.6561C35.3323 55.7182 35.1152 55.7314 34.9039 55.6946Z" fill="url(#paint1_linear_2042_211)"/>
</g>
<defs>
<linearGradient id="paint0_linear_2042_211" x1="69.0188" y1="85.4045" x2="54.6335" y2="27.5552" gradientUnits="userSpaceOnUse">
<stop/>
<stop offset="0.5" stop-color="white"/>
<stop offset="1"/>
</linearGradient>
<linearGradient id="paint1_linear_2042_211" x1="20.8377" y1="51.3495" x2="77.7723" y2="30.5018" gradientUnits="userSpaceOnUse">
<stop stop-color="#1F556B"/>
<stop offset="1" stop-color="#44B1D2"/>
</linearGradient>
</defs>
</svg>
