<svg preserveAspectRatio="none" width="100%" height="100%" overflow="visible" style="display: block;" viewBox="0 0 39.5811 39.5811" fill="none" xmlns="http://www.w3.org/2000/svg">
<path id="Exclude" d="M19.791 0C30.721 0.000170081 39.5811 8.86102 39.5811 19.791C39.5809 30.7209 30.7209 39.5809 19.791 39.5811C8.86102 39.5811 0.000170092 30.721 0 19.791C0 8.86091 8.86091 0 19.791 0ZM21.8887 12.1299C21.4678 11.6969 20.7859 11.6966 20.3652 12.1299C19.9447 12.5632 19.945 13.2658 20.3652 13.6992L25.3838 18.8691H11.9756C11.3807 18.8693 10.8985 19.3657 10.8984 19.9785C10.8984 20.5914 11.3807 21.0887 11.9756 21.0889H25.3838L20.3652 26.2578C19.9449 26.6913 19.9446 27.3948 20.3652 27.8281C20.7858 28.2611 21.4679 28.2607 21.8887 27.8281L28.7471 20.7637C29.1677 20.3302 29.1678 19.6268 28.7471 19.1934L21.8887 12.1299Z" fill="var(--fill-0, white)"/>
</svg>
