<svg preserveAspectRatio="none" width="100%" height="100%" overflow="visible" style="display: block;" viewBox="0 0 39.5811 39.5811" fill="none" xmlns="http://www.w3.org/2000/svg">
<path id="Exclude" d="M19.791 0C30.721 0.000170081 39.5811 8.86102 39.5811 19.791C39.5809 30.7209 30.7209 39.5809 19.791 39.5811C8.86102 39.5811 0.000170092 30.721 0 19.791C0 8.86091 8.86091 0 19.791 0ZM21.8887 12.1318C21.4678 11.6989 20.7858 11.6986 20.3652 12.1318C19.9448 12.5651 19.945 13.2677 20.3652 13.7012L25.3838 18.8711H11.9766C11.3816 18.8711 10.8986 19.3676 10.8984 19.9805C10.8984 20.5935 11.3815 21.0908 11.9766 21.0908H25.3838L20.3652 26.2607C19.9452 26.6943 19.9447 27.3969 20.3652 27.8301C20.7858 28.2632 21.4678 28.2628 21.8887 27.8301L28.7471 20.7666C29.1679 20.3331 29.1679 19.6288 28.7471 19.1953L21.8887 12.1318Z" fill="var(--fill-0, #A9C35C)"/>
</svg>
