<svg preserveAspectRatio="none" width="100%" height="100%" overflow="visible" style="display: block;" viewBox="0 0 98 95" fill="none" xmlns="http://www.w3.org/2000/svg">
<path id="Vector" fill-rule="evenodd" clip-rule="evenodd" d="M50.0577 94.7209C40.4411 94.7209 35.9661 93.3602 28.1959 87.8927C23.285 94.0468 7.71894 98.8527 7.03936 90.6265C7.03936 84.4474 5.64175 79.242 4.03898 73.5373C2.15412 66.5218 0 58.7075 0 47.3854C0 20.3473 22.7978 0 49.8012 0C76.8303 0 97.9997 21.3459 97.9997 47.6351C98.0895 73.5248 76.638 94.5836 50.0577 94.7209ZM50.4552 23.3681C37.2996 22.7065 27.0547 31.5695 24.7852 45.463C22.9132 56.9723 26.2341 70.9782 29.0678 71.7023C30.427 72.0268 33.8377 69.3305 35.9661 67.2583C39.4922 69.6301 43.5825 71.0531 47.8523 71.3777C61.4822 72.0143 73.1247 61.9156 74.0351 48.6587C74.5737 35.3768 64.0723 24.1296 50.4424 23.3681H50.4552Z" fill="var(--fill-0, white)"/>
</svg>
