<svg preserveAspectRatio="none" width="100%" height="100%" overflow="visible" style="display: block;" viewBox="0 0 51.1719 51.1719" fill="none" xmlns="http://www.w3.org/2000/svg">
<path id="Exclude" d="M25.5859 0C39.7167 0 51.1718 11.4552 51.1719 25.5859C51.1719 39.7168 39.7168 51.1719 25.5859 51.1719C11.4552 51.1718 0 39.7167 0 25.5859C9.27721e-05 11.4553 11.4553 9.27781e-05 25.5859 0ZM28.3027 15.6777C27.7587 15.118 26.8768 15.1177 26.333 15.6777C25.7892 16.2379 25.7896 17.1466 26.333 17.707L32.8203 24.3906H15.4863C14.7172 24.3909 14.0938 25.0329 14.0938 25.8252C14.0938 26.6176 14.7172 27.2605 15.4863 27.2607H32.8203L26.333 33.9434C25.7896 34.5038 25.7892 35.4125 26.333 35.9727C26.8768 36.5328 27.7587 36.5324 28.3027 35.9727L37.1689 26.8408C37.713 26.2804 37.713 25.37 37.1689 24.8096L28.3027 15.6777Z" fill="var(--fill-0, #A9C35C)"/>
</svg>
