<svg preserveAspectRatio="none" width="100%" height="100%" overflow="visible" style="display: block;" viewBox="0 0 45.5141 14.9569" fill="none" xmlns="http://www.w3.org/2000/svg">
<path id="Vector" d="M17.557 0V0.41547C17.1147 0.428873 16.7662 0.482482 16.525 0.576298C16.2838 0.670114 16.1229 0.830941 16.0559 1.08558C15.9755 1.32682 15.9353 1.71549 15.9353 2.22478V12.6517C15.9353 13.161 15.9755 13.5363 16.0559 13.7909C16.1363 14.0456 16.2972 14.2064 16.525 14.3002C16.7528 14.394 17.1013 14.4342 17.5436 14.4745V14.8899C17.1817 14.8631 16.7126 14.8497 16.1497 14.8363C15.5868 14.8229 15.0239 14.8229 14.4477 14.8229C13.8177 14.8229 13.228 14.8229 12.6651 14.8363C12.1157 14.8497 11.66 14.8631 11.3249 14.8899V14.4745C11.8074 14.4477 12.1559 14.394 12.4105 14.3002C12.6517 14.2198 12.826 14.0456 12.9064 13.7909C12.9868 13.5363 13.027 13.161 13.027 12.6517V1.21961L13.1744 1.24641L7.96095 14.9569H7.62589L2.10415 1.35363V11.7806C2.10415 12.4507 2.14436 12.9734 2.22477 13.3487C2.30519 13.7239 2.49282 13.992 2.78767 14.1528C3.06912 14.3136 3.51139 14.4208 4.10109 14.4745V14.8899C3.83305 14.8631 3.49799 14.8497 3.06912 14.8363C2.65365 14.8229 2.25158 14.8229 1.87632 14.8229C1.54126 14.8229 1.2062 14.8229 0.857745 14.8363C0.509286 14.8497 0.227839 14.8631 0 14.8899V14.4745C0.46908 14.4208 0.804135 14.3136 1.04538 14.1528C1.27321 14.0054 1.43404 13.7507 1.51446 13.4023C1.59487 13.0538 1.63508 12.5713 1.63508 11.9548V2.23818C1.63508 1.71549 1.59487 1.34023 1.51446 1.09899C1.43404 0.857745 1.28662 0.683516 1.04538 0.5897C0.817537 0.495884 0.46908 0.442275 0 0.428872V0C0.227839 0.0134023 0.509286 0.026805 0.857745 0.0402072C1.2062 0.0536095 1.54126 0.0670114 1.87632 0.0670114C2.39901 0.0670114 2.89489 0.0536095 3.39077 0.0402072C3.88666 0.026805 4.31553 0.0134023 4.6908 0L9.20736 11.2847L8.73828 11.66L13.1342 0.0536093C13.3487 0.0536093 13.5631 0.0536093 13.7909 0.0536093C14.0188 0.0536093 14.2466 0.0536093 14.4477 0.0536093C15.0239 0.0536093 15.5868 0.0402064 16.1497 0.0268041C16.726 0.0268041 17.1951 0.0134023 17.557 0ZM25.2097 0V0.41547C24.7674 0.428873 24.4189 0.482482 24.1911 0.576298C23.9633 0.670114 23.8024 0.830941 23.722 1.08558C23.6416 1.32682 23.6014 1.71549 23.6014 2.22478V12.6517C23.6014 13.161 23.6416 13.5363 23.722 13.7909C23.8024 14.0456 23.9633 14.2064 24.1911 14.3002C24.4189 14.3806 24.7674 14.4342 25.2097 14.4745V14.8899C24.8612 14.8631 24.4055 14.8497 23.8694 14.8363C23.32 14.8229 22.7705 14.8229 22.2076 14.8229C21.5777 14.8229 20.988 14.8229 20.4385 14.8363C19.889 14.8497 19.4467 14.8631 19.0982 14.8899V14.4745C19.5673 14.4477 19.9024 14.394 20.1436 14.3002C20.3849 14.2064 20.5323 14.0456 20.6127 13.7909C20.6931 13.5363 20.7333 13.161 20.7333 12.6517V2.23818C20.7333 1.71549 20.6931 1.34023 20.6127 1.09899C20.5323 0.857745 20.3849 0.683516 20.1436 0.5897C19.9158 0.495884 19.5673 0.442275 19.0982 0.428872V0C19.4467 0.0134023 19.9024 0.026805 20.4385 0.0402072C20.988 0.0536095 21.5777 0.0670114 22.2076 0.0670114C22.7705 0.0670114 23.32 0.0536095 23.8694 0.0402072C24.4055 0.026805 24.8612 0.0134023 25.2097 0ZM32.3129 0V0.41547C31.8438 0.495884 31.3747 0.670114 30.9056 0.938159C30.4232 1.2062 29.9407 1.63508 29.4314 2.23818L25.4643 7.11661L26.4159 5.60215L31.4417 13.1744C31.6696 13.4961 31.8974 13.7507 32.1387 13.9518C32.3799 14.1528 32.6881 14.3136 33.0634 14.4611V14.8765C32.6345 14.8497 32.1252 14.8363 31.5758 14.8229C31.0129 14.8095 30.5036 14.8095 30.0345 14.8095C29.7664 14.8095 29.4314 14.8095 29.0293 14.8229C28.6273 14.8363 28.1314 14.8497 27.5283 14.8765V14.4611C28.0912 14.4342 28.4262 14.3538 28.5334 14.2198C28.6407 14.0858 28.6005 13.858 28.386 13.5095L25.3169 8.67127C25.0891 8.30941 24.888 8.02796 24.7138 7.85373C24.5396 7.6661 24.3653 7.54548 24.1777 7.49187C23.9901 7.42486 23.7756 7.38465 23.5076 7.37125V6.95578C24.0973 6.92898 24.62 6.76815 25.0891 6.4867C25.5581 6.20525 26.0138 5.78978 26.4829 5.24029L27.9705 3.36397C28.4932 2.74747 28.8015 2.22478 28.9221 1.7825C29.0293 1.35363 28.9757 1.00517 28.7345 0.777332C28.4932 0.536091 28.0912 0.415471 27.5417 0.402068V0C27.8499 0.0134023 28.1582 0.0268041 28.4664 0.0268041C28.7747 0.0402064 29.0829 0.040207 29.4046 0.0536093C29.7262 0.0670116 30.0479 0.0670114 30.4098 0.0670114C30.8118 0.0670114 31.1871 0.0536095 31.5087 0.0402072C31.7902 0.026805 32.0716 0.0134023 32.3129 0ZM33.7067 0C34.0552 0.0134023 34.5109 0.026805 35.0469 0.0402072C35.5964 0.0536095 36.1459 0.0670114 36.682 0.0670114C37.3655 0.0670114 38.0223 0.0536095 38.6388 0.0402072C39.2553 0.026805 39.6841 0.0134021 39.9388 0.0134021C41.8151 0.0134021 43.2089 0.402068 44.1337 1.166C45.045 1.94333 45.5141 2.9351 45.5141 4.15471C45.5141 4.66399 45.4203 5.18668 45.2461 5.73617C45.0584 6.28567 44.7502 6.79495 44.2945 7.27744C43.8522 7.74651 43.2357 8.13518 42.4584 8.41663C41.6811 8.71148 40.6893 8.8589 39.4831 8.8589H37.3789V8.44343H39.2687C40.1532 8.44343 40.8233 8.2558 41.2924 7.88054C41.7615 7.50527 42.0831 7.00939 42.244 6.39288C42.4048 5.77638 42.4852 5.10627 42.4852 4.39595C42.4852 3.06912 42.2708 2.06395 41.8285 1.40724C41.3996 0.750527 40.6491 0.41547 39.5769 0.41547C39.0006 0.41547 38.6253 0.536091 38.4511 0.777332C38.2769 1.01857 38.1831 1.50105 38.1831 2.22478V12.5713C38.1831 13.1074 38.2367 13.5095 38.3573 13.7641C38.4645 14.0322 38.6924 14.2064 39.014 14.2868C39.3357 14.3672 39.8048 14.4208 40.4079 14.4342V14.8765C40.0058 14.8497 39.4697 14.8363 38.8264 14.8229C38.1831 14.8095 37.513 14.8095 36.8294 14.8095C36.2397 14.8095 35.6769 14.8095 35.1274 14.8229C34.5779 14.8363 34.1088 14.8497 33.6933 14.8765V14.4611C34.1624 14.4342 34.4975 14.3806 34.7387 14.2868C34.9799 14.193 35.1274 14.0322 35.2078 13.7775C35.2882 13.5229 35.3284 13.1476 35.3284 12.6383V2.23818C35.3284 1.71549 35.2882 1.34023 35.2078 1.09899C35.1274 0.857745 34.9799 0.683516 34.7387 0.5897C34.5109 0.495884 34.1624 0.442275 33.6933 0.428872V0H33.7067Z" fill="url(#paint0_linear_2020_17)"/>
<defs>
<linearGradient id="paint0_linear_2020_17" x1="0.00088455" y1="7.47734" x2="45.5168" y2="7.47734" gradientUnits="userSpaceOnUse">
<stop stop-color="#1F556B"/>
<stop offset="0.5" stop-color="#44B1D2"/>
<stop offset="1" stop-color="#1F556B"/>
</linearGradient>
</defs>
</svg>
