<svg preserveAspectRatio="none" width="100%" height="100%" overflow="visible" style="display: block;" viewBox="0 0 473.588 152.99" fill="none" xmlns="http://www.w3.org/2000/svg">
<g id="Group">
<path id="Vector" d="M310.139 32.7744V35.2034C307.553 35.2818 305.516 35.5952 304.106 36.1437C302.695 36.6922 301.755 37.6324 301.363 39.1212C300.893 40.5316 300.658 42.8039 300.658 45.7814V106.742C300.658 109.719 300.893 111.913 301.363 113.402C301.833 114.89 302.774 115.831 304.106 116.379C305.438 116.928 307.475 117.163 310.061 117.398V119.827C307.945 119.67 305.203 119.592 301.912 119.513C298.621 119.435 295.33 119.435 291.961 119.435C288.278 119.435 284.83 119.435 281.539 119.513C278.327 119.592 275.663 119.67 273.704 119.827V117.398C276.525 117.241 278.562 116.928 280.051 116.379C281.461 115.909 282.48 114.89 282.95 113.402C283.42 111.913 283.655 109.719 283.655 106.742V39.9047L284.517 40.0615L254.037 120.219H252.078L219.796 40.6883V101.648C219.796 105.566 220.031 108.622 220.501 110.816C220.971 113.01 222.068 114.577 223.792 115.517C225.437 116.458 228.023 117.084 231.471 117.398V119.827C229.903 119.67 227.945 119.592 225.437 119.513C223.008 119.435 220.658 119.435 218.464 119.435C216.505 119.435 214.546 119.435 212.509 119.513C210.471 119.592 208.826 119.67 207.494 119.827V117.398C210.236 117.084 212.195 116.458 213.606 115.517C214.938 114.655 215.878 113.167 216.348 111.129C216.818 109.092 217.053 106.271 217.053 102.667V45.8597C217.053 42.8039 216.818 40.6099 216.348 39.1995C215.878 37.7892 215.016 36.7705 213.606 36.2221C212.274 35.6736 210.236 35.3602 207.494 35.2818V32.7744C208.826 32.8528 210.471 32.9312 212.509 33.0095C214.546 33.0879 216.505 33.1662 218.464 33.1662C221.519 33.1662 224.419 33.0879 227.318 33.0095C230.217 32.9312 232.724 32.8528 234.918 32.7744L261.324 98.7494L258.581 100.943L284.282 33.0879C285.535 33.0879 286.789 33.0879 288.121 33.0879C289.453 33.0879 290.785 33.0879 291.961 33.0879C295.33 33.0879 298.621 33.0095 301.912 32.9311C305.281 32.9311 308.023 32.8528 310.139 32.7744ZM354.88 32.7744V35.2034C352.294 35.2818 350.257 35.5952 348.925 36.1437C347.593 36.6922 346.652 37.6324 346.182 39.1212C345.712 40.5316 345.477 42.8039 345.477 45.7814V106.742C345.477 109.719 345.712 111.913 346.182 113.402C346.652 114.89 347.593 115.831 348.925 116.379C350.257 116.849 352.294 117.163 354.88 117.398V119.827C352.842 119.67 350.178 119.592 347.044 119.513C343.832 119.435 340.619 119.435 337.328 119.435C333.645 119.435 330.198 119.435 326.985 119.513C323.773 119.592 321.187 119.67 319.15 119.827V117.398C321.892 117.241 323.851 116.928 325.261 116.379C326.672 115.831 327.534 114.89 328.004 113.402C328.474 111.913 328.709 109.719 328.709 106.742V45.8597C328.709 42.8039 328.474 40.6099 328.004 39.1995C327.534 37.7892 326.672 36.7705 325.261 36.2221C323.929 35.6736 321.892 35.3602 319.15 35.2818V32.7744C321.187 32.8528 323.851 32.9312 326.985 33.0095C330.198 33.0879 333.645 33.1662 337.328 33.1662C340.619 33.1662 343.832 33.0879 347.044 33.0095C350.178 32.9312 352.842 32.8528 354.88 32.7744ZM396.408 32.7744V35.2034C393.665 35.6736 390.923 36.6922 388.181 38.2593C385.36 39.8264 382.539 42.3337 379.562 45.8597L356.368 74.381L361.932 65.5268L391.315 109.797C392.647 111.678 393.979 113.167 395.389 114.342C396.8 115.517 398.602 116.458 400.796 117.319V119.749C398.288 119.592 395.311 119.513 392.098 119.435C388.807 119.357 385.83 119.357 383.087 119.357C381.52 119.357 379.562 119.357 377.211 119.435C374.86 119.513 371.961 119.592 368.435 119.749V117.319C371.726 117.163 373.685 116.693 374.312 115.909C374.939 115.126 374.704 113.794 373.45 111.756L355.507 83.4701C354.174 81.3545 352.999 79.7091 351.981 78.6905C350.962 77.5935 349.943 76.8883 348.846 76.5749C347.749 76.1831 346.496 75.9481 344.929 75.8697V73.4407C348.376 73.284 351.432 72.3437 354.175 70.6983C356.917 69.0528 359.581 66.6238 362.323 63.4112L371.021 52.4415C374.077 48.8372 375.879 45.7814 376.584 43.1957C377.211 40.6883 376.897 38.6511 375.487 37.319C374.077 35.9086 371.726 35.2034 368.513 35.1251V32.7744C370.316 32.8528 372.118 32.9311 373.92 32.9311C375.722 33.0095 377.524 33.0095 379.405 33.0879C381.285 33.1662 383.166 33.1662 385.281 33.1662C387.632 33.1662 389.826 33.0879 391.707 33.0095C393.352 32.9312 394.997 32.8528 396.408 32.7744ZM404.557 32.7744C406.594 32.8528 409.258 32.9312 412.392 33.0095C415.605 33.0879 418.817 33.1662 421.952 33.1662C425.948 33.1662 429.787 33.0879 433.391 33.0095C436.996 32.9312 439.503 32.8528 440.992 32.8528C451.962 32.8528 460.11 35.1251 465.517 39.5913C470.845 44.1359 473.588 49.9342 473.588 57.0645C473.588 60.042 473.039 63.0978 472.02 66.3104C470.923 69.5229 469.121 72.5004 466.457 75.3212C463.872 78.0636 460.267 80.3359 455.723 81.9814C451.178 83.7052 445.38 84.5671 438.328 84.5671H426.026V82.1381H437.074C442.246 82.1381 446.163 81.0411 448.906 78.8472C451.648 76.6533 453.529 73.7541 454.469 70.1498C455.409 66.5454 455.879 62.6277 455.879 58.4749C455.879 50.7177 454.626 44.8411 452.04 41.0017C449.533 37.1623 445.145 35.2034 438.876 35.2034C435.507 35.2034 433.313 35.9086 432.294 37.319C431.276 38.7294 430.727 41.5502 430.727 45.7814V106.271C430.727 109.406 431.041 111.756 431.746 113.245C432.373 114.812 433.705 115.831 435.585 116.301C437.466 116.771 440.208 117.084 443.734 117.163V119.749C441.384 119.592 438.249 119.513 434.488 119.435C430.727 119.357 426.81 119.357 422.813 119.357C419.366 119.357 416.075 119.357 412.862 119.435C409.65 119.513 406.907 119.592 404.478 119.749V117.319C407.221 117.163 409.18 116.849 410.59 116.301C412.001 115.752 412.862 114.812 413.333 113.323C413.803 111.835 414.038 109.641 414.038 106.663V45.8597C414.038 42.8039 413.803 40.6099 413.333 39.1995C412.862 37.7892 412.001 36.7705 410.59 36.2221C409.258 35.6736 407.221 35.3602 404.478 35.2818V32.7744H404.557Z" fill="var(--fill-0, white)"/>
<path id="Vector_2" d="M148.494 50.7944C164.948 91.6957 32.2931 73.0472 51.0983 148.66C40.8338 145.056 15.2117 132.519 4.47703 102.274C-10.097 61.294 123.968 80.3343 101.872 4.40823C112.137 7.93421 136.505 21.0195 148.494 50.7944ZM55.4861 149.992C74.5264 155.477 95.6039 153.596 114.174 143.018C138.386 129.306 152.646 103.762 152.96 78.5321C152.96 78.5321 153.273 76.1814 152.725 70.5399C122.558 106.191 43.0277 91.6957 55.4861 149.992ZM97.4844 2.99784C78.4442 -2.48701 57.3667 -0.606487 38.7965 9.97144C14.6632 23.6836 0.402571 49.2273 0.0891509 74.4576C0.0891509 74.4576 -0.22427 76.8083 0.324215 82.4498C30.4909 46.7983 110.021 61.294 97.4844 2.99784Z" fill="var(--fill-0, white)"/>
</g>
</svg>
