<svg preserveAspectRatio="none" width="100%" height="100%" overflow="visible" style="display: block;" viewBox="0 0 37.0319 37" fill="none" xmlns="http://www.w3.org/2000/svg">
<g id="Frame 13">
<path id="Vector" d="M18.516 37C28.742 37 37.0319 28.7173 37.0319 18.5C37.0319 8.28273 28.742 0 18.516 0C8.28988 0 0 8.28273 0 18.5C0 28.7173 8.28988 37 18.516 37Z" fill="var(--fill-0, white)"/>
<path id="Vector_2" d="M12.6233 21.7818L8.05856 20.4598C8.05856 20.4598 7.5116 20.2587 7.6691 19.7568C7.70151 19.6533 7.77082 19.5639 7.98181 19.4072C8.95961 18.6774 26.2744 11.8101 26.2744 11.8101C26.2744 11.8101 26.7636 11.6273 27.059 11.7285C27.132 11.7485 27.1983 11.7874 27.2512 11.8414C27.3041 11.8954 27.3417 11.9624 27.3602 12.0356C27.396 12.1649 27.4136 12.2985 27.4124 12.4327C27.4148 12.5486 27.4043 12.6564 27.3992 12.8252C27.3491 14.549 24.5776 27.4933 24.5776 27.4933C24.5776 27.4933 24.4113 28.2509 23.7275 28.2991C23.5595 28.3101 23.3909 28.2871 23.232 28.2316C23.073 28.176 22.9268 28.0891 22.8022 27.9759C21.4209 26.8655 16.6752 23.9001 15.6267 23.2481C15.603 23.2331 15.5828 23.2132 15.5675 23.1898C15.5522 23.1663 15.5421 23.1399 15.5379 23.1122C15.5212 23.0404 15.5969 22.9483 15.5969 22.9483C15.5969 22.9483 23.4458 15.5027 23.6362 14.7418C23.6509 14.6829 23.587 14.6562 23.5034 14.6845C22.9729 14.8995 13.8571 21.0785 12.8511 21.7605C12.7778 21.7852 12.6998 21.7925 12.6233 21.7818Z" fill="url(#paint0_linear_2020_25)"/>
<path id="Vector_3" d="M12.5757 20.0655L8.0569 18.5945C8.0569 18.5945 7.51685 18.3756 7.69075 17.8791C7.72655 17.7768 7.79876 17.6897 8.01478 17.54C9.01603 16.8427 26.5471 10.547 26.5471 10.547C26.5471 10.547 27.0421 10.3803 27.334 10.4912C27.4062 10.5135 27.4712 10.5546 27.5223 10.6103C27.5734 10.6659 27.6088 10.7342 27.6249 10.808C27.6564 10.9384 27.6696 11.0725 27.6641 11.2065C27.6627 11.3224 27.6486 11.4299 27.638 11.5984C27.5312 13.3197 24.336 26.1661 24.336 26.1661C24.336 26.1661 24.1448 26.9178 23.4599 26.9435C23.2915 26.949 23.1239 26.9205 22.9668 26.8598C22.8097 26.7991 22.6665 26.7074 22.5456 26.5902C21.2015 25.435 16.5559 22.3156 15.5293 21.6296C15.5062 21.6138 15.4867 21.5932 15.4721 21.5693C15.4576 21.5454 15.4484 21.5186 15.4451 21.4908C15.4307 21.4185 15.5094 21.3289 15.5094 21.3289C15.5094 21.3289 23.5987 14.1448 23.814 13.3906C23.8307 13.3322 23.7677 13.3033 23.6831 13.3289C23.1459 13.5264 13.832 19.4031 12.8041 20.0517C12.7301 20.074 12.6519 20.0788 12.5757 20.0655Z" fill="url(#paint1_linear_2020_25)"/>
</g>
<defs>
<linearGradient id="paint0_linear_2020_25" x1="24.8719" y1="30.7725" x2="19.6889" y2="9.92945" gradientUnits="userSpaceOnUse">
<stop/>
<stop offset="0.5" stop-color="white"/>
<stop offset="1"/>
</linearGradient>
<linearGradient id="paint1_linear_2020_25" x1="7.50768" y1="18.5" x2="28.0212" y2="10.9886" gradientUnits="userSpaceOnUse">
<stop stop-color="#1F556B"/>
<stop offset="1" stop-color="#44B1D2"/>
</linearGradient>
</defs>
</svg>
