<svg preserveAspectRatio="none" width="100%" height="100%" overflow="visible" style="display: block;" viewBox="0 0 104 94" fill="none" xmlns="http://www.w3.org/2000/svg">
<path id="Exclude" d="M100.157 0.201627C102.242 -0.635226 104.393 1.2607 103.939 3.53332L86.2892 91.665C85.8735 93.7457 83.523 94.6886 81.8647 93.4376L57.7716 75.2786C56.309 74.176 54.3143 74.2347 52.9141 75.4199L39.5559 86.724C38.0059 88.04 35.6699 87.3065 35.0763 85.3246L25.8006 54.3573L1.83685 45.0728C-0.597204 44.1261 -0.618002 40.5586 1.80913 39.5879L100.157 0.201627ZM81.3994 20.8107C82.123 20.1149 81.2566 18.9335 80.4154 19.4698L33.5815 49.4143C31.7865 50.5642 30.9415 52.8148 31.5206 54.9216L36.5842 73.3922C36.9444 74.7007 38.7734 74.5671 38.9488 73.2152L40.2646 63.0858C40.5132 61.1789 41.3893 59.4211 42.7482 58.1087L81.3994 20.8107Z" fill="var(--fill-0, white)"/>
</svg>
