<svg preserveAspectRatio="none" width="100%" height="100%" overflow="visible" style="display: block;" viewBox="0 0 65.9688 65.9688" fill="none" xmlns="http://www.w3.org/2000/svg">
<path id="Exclude" d="M32.9844 0C51.2011 0 65.9686 14.7677 65.9688 32.9844C65.9688 51.2012 51.2012 65.9688 32.9844 65.9688C14.7677 65.9686 0 51.2011 0 32.9844C0.000132351 14.7677 14.7677 0.00015225 32.9844 0ZM36.4893 20.2129C35.788 19.4916 34.6512 19.4912 33.9502 20.2129C33.2491 20.9351 33.2497 22.1066 33.9502 22.8291L42.3135 31.4453H19.9678C18.976 31.4453 18.172 32.2733 18.1719 33.2949C18.1719 34.3166 18.9759 35.1455 19.9678 35.1455H42.3135L33.9502 43.7607C33.2497 44.4833 33.2491 45.6548 33.9502 46.377C34.6513 47.0989 35.7879 47.0985 36.4893 46.377L47.9199 34.6045C48.6212 33.8821 48.6211 32.7088 47.9199 31.9863L36.4893 20.2129Z" fill="var(--fill-0, #A9C35C)"/>
</svg>
