<svg preserveAspectRatio="none" width="100%" height="100%" overflow="visible" style="display: block;" viewBox="0 0 50 48" fill="none" xmlns="http://www.w3.org/2000/svg">
<path id="Vector" fill-rule="evenodd" clip-rule="evenodd" d="M25.5396 47.859C20.6332 47.859 18.3501 47.1715 14.3857 44.4089C11.8801 47.5184 3.93823 49.9466 3.59151 45.7902C3.59151 42.6681 2.87844 40.038 2.0607 37.1557C1.09904 33.611 0 29.6627 0 23.9421C0 10.2807 11.6315 0 25.4088 0C39.1992 0 49.9999 10.7853 49.9999 24.0682C50.0457 37.1494 39.101 47.7896 25.5396 47.859ZM25.7424 11.8071C19.0304 11.4728 13.8034 15.9509 12.6455 22.9708C11.6904 28.786 13.3848 35.8627 14.8305 36.2285C15.524 36.3925 17.2641 35.0301 18.3501 33.9831C20.1491 35.1815 22.236 35.9005 24.4144 36.0645C31.3685 36.3862 37.3085 31.2837 37.773 24.5854C38.0478 17.8746 32.69 12.1918 25.7359 11.8071H25.7424Z" fill="var(--fill-0, white)"/>
</svg>
