<svg preserveAspectRatio="none" width="100%" height="100%" overflow="visible" style="display: block;" viewBox="0 0 77.1465 77.1465" fill="none" xmlns="http://www.w3.org/2000/svg">
<path id="Exclude" d="M38.5732 0C59.8767 0 77.1465 17.2698 77.1465 38.5732C77.1465 59.8767 59.8767 77.1465 38.5732 77.1465C17.2698 77.1465 0 59.8767 0 38.5732C2.88628e-05 17.2698 17.2698 2.88646e-05 38.5732 0ZM42.6553 23.6484C41.8351 22.8048 40.5053 22.8041 39.6855 23.6484C38.8657 24.493 38.8663 25.8631 39.6855 26.708L49.4668 36.7842H23.335C22.1751 36.7842 21.2344 37.7525 21.2344 38.9473C21.2344 40.142 22.1751 41.1104 23.335 41.1104H49.4668L39.6855 51.1865C38.8665 52.0314 38.866 53.4006 39.6855 54.2451C40.5054 55.0897 41.835 55.089 42.6553 54.2451L56.0225 40.4775C56.8425 39.6327 56.8426 38.2608 56.0225 37.416L42.6553 23.6484Z" fill="var(--fill-0, #A9C35C)"/>
</svg>
