<svg preserveAspectRatio="none" width="100%" height="100%" overflow="visible" style="display: block;" viewBox="0 0 77.1465 77.1465" fill="none" xmlns="http://www.w3.org/2000/svg">
<path id="Exclude" d="M38.5732 0C59.8767 0 77.1465 17.2698 77.1465 38.5732C77.1465 59.8767 59.8767 77.1465 38.5732 77.1465C17.2698 77.1465 0 59.8767 0 38.5732C2.88628e-05 17.2698 17.2698 2.88646e-05 38.5732 0ZM42.6631 23.6416C41.8429 22.7977 40.5132 22.7971 39.6934 23.6416C38.8738 24.4861 38.8743 25.8553 39.6934 26.7002L49.4746 36.7764H23.3418C22.1822 36.7766 21.2423 37.7449 21.2422 38.9395C21.2422 40.1341 22.1821 41.1023 23.3418 41.1025H49.4746L39.6934 51.1787C38.8741 52.0236 38.8735 53.3937 39.6934 54.2383C40.5132 55.0826 41.8429 55.082 42.6631 54.2383L56.0303 40.4707C56.8504 39.6259 56.8503 38.2541 56.0303 37.4092L42.6631 23.6416Z" fill="var(--fill-0, white)"/>
</svg>
