<svg preserveAspectRatio="none" width="100%" height="100%" overflow="visible" style="display: block;" viewBox="0 0 53 48" fill="none" xmlns="http://www.w3.org/2000/svg">
<path id="Exclude" d="M51.0416 0.102958C52.1041 -0.324371 53.2002 0.643761 52.9688 1.80425L43.9743 46.8077C43.7625 47.8701 42.5646 48.3516 41.7195 47.7128L29.4413 38.4402C28.6959 37.8771 27.6794 37.9071 26.9658 38.5123L20.1583 44.2846C19.3684 44.9566 18.1779 44.582 17.8754 43.57L13.1484 27.7569L0.936089 23.0159C-0.304344 22.5325 -0.314943 20.7108 0.921958 20.2151L51.0416 0.102958ZM41.4824 10.6267C41.8511 10.2714 41.4096 9.66815 40.9809 9.94205L17.1137 25.2328C16.1989 25.82 15.7683 26.9692 16.0634 28.0451L18.6439 37.4769C18.8274 38.1451 19.7595 38.0768 19.8489 37.3865L20.5195 32.214C20.6462 31.2403 21.0926 30.3427 21.7851 29.6725L41.4824 10.6267Z" fill="var(--fill-0, white)"/>
</svg>
