<svg preserveAspectRatio="none" width="100%" height="100%" overflow="visible" style="display: block;" viewBox="0 0 94.6009 94.6056" fill="none" xmlns="http://www.w3.org/2000/svg">
<path id="Exclude" d="M47.3194 0.000130772C53.5333 -0.0145317 59.6887 1.20394 65.4288 3.58412C71.1687 5.96433 76.3797 9.45966 80.7598 13.8673C85.1644 18.2511 88.6555 23.465 91.0313 29.2072C93.4071 34.9494 94.6203 41.1061 94.6006 47.3204C94.5904 73.3929 73.3718 94.6056 47.3008 94.6056H47.2833C38.794 94.6009 30.4694 92.3226 23.209 88.0138L21.4795 86.9894L3.5772 91.6837L8.35649 74.2355L7.23149 72.4464C2.49462 64.9088 -0.0127719 56.1848 4.89212e-05 47.2824C0.00933047 21.2112 21.2282 0.000130772 47.3194 0.000130772ZM28.4219 23.049C27.5336 23.049 26.0894 23.3772 24.8692 24.6915C23.6489 26.0059 20.2071 29.1828 20.2071 35.6437C20.2071 42.1043 24.98 48.3471 25.6456 49.2247C26.3107 50.1019 34.861 63.7831 48.4014 69.047C59.6531 73.4212 61.9436 72.5518 64.3868 72.3331C66.8301 72.1146 72.2686 69.1565 73.378 66.09C74.4873 63.0234 74.4879 60.3961 74.1553 59.8468C73.8227 59.2976 72.9347 58.9707 71.6016 58.3136C70.2684 57.6564 63.7201 54.4798 62.4991 54.0411C61.2781 53.6026 60.3901 53.385 59.501 54.6993C58.612 56.0136 56.0629 58.9701 55.2852 59.8468C54.5077 60.7233 53.7308 60.8333 52.3975 60.1769C51.0639 59.5204 46.7748 58.1327 41.6856 53.6593C37.7261 50.1788 35.053 45.8807 34.2745 44.5665C33.4963 43.253 34.1914 42.5411 34.8594 41.8868C35.4571 41.2984 36.1912 40.3534 36.8584 39.587C37.5258 38.8206 37.7461 38.2726 38.1895 37.3976C38.633 36.5226 38.4115 35.7533 38.0782 35.0968C37.7441 34.4384 35.1565 27.9446 33.9727 25.3478C32.9742 23.1616 31.9231 23.1171 30.9747 23.0792L28.4219 23.049Z" fill="var(--fill-0, white)"/>
</svg>
