<svg preserveAspectRatio="none" width="100%" height="100%" overflow="visible" style="display: block;" viewBox="0 0 77.1465 77.1465" fill="none" xmlns="http://www.w3.org/2000/svg">
<path id="Exclude" d="M38.5732 0C59.8767 0 77.1465 17.2698 77.1465 38.5732C77.1465 59.8767 59.8767 77.1465 38.5732 77.1465C17.2698 77.1465 0 59.8767 0 38.5732C2.88628e-05 17.2698 17.2698 2.88646e-05 38.5732 0ZM42.6631 23.6406C41.8429 22.7969 40.5132 22.7962 39.6934 23.6406C38.8735 24.4852 38.8741 25.8553 39.6934 26.7002L49.4746 36.7754H23.3418C22.1821 36.7757 21.2422 37.7448 21.2422 38.9395C21.2423 40.134 22.1822 41.1023 23.3418 41.1025H49.4746L39.6934 51.1787C38.8744 52.0236 38.8737 53.3928 39.6934 54.2373C40.5132 55.0819 41.8429 55.0812 42.6631 54.2373L56.0303 40.4697C56.8504 39.6249 56.8504 38.253 56.0303 37.4082L42.6631 23.6406Z" fill="var(--fill-0, white)"/>
</svg>
