<svg preserveAspectRatio="none" width="100%" height="100%" overflow="visible" style="display: block;" viewBox="0 0 102.784 102.696" fill="none" xmlns="http://www.w3.org/2000/svg">
<g id="Frame 13">
<path id="Vector" d="M51.3905 102.692C79.7728 102.692 102.781 79.704 102.781 51.3462C102.781 22.9885 79.7728 0 51.3905 0C23.0083 0 0 22.9885 0 51.3462C0 79.704 23.0083 102.692 51.3905 102.692Z" fill="var(--fill-0, white)"/>
<path id="Vector_2" d="M35.0277 60.4577L22.3584 56.7884C22.3584 56.7884 20.8404 56.2303 21.2775 54.8374C21.3675 54.5502 21.5598 54.302 22.1454 53.867C24.8593 51.8416 72.916 32.7816 72.916 32.7816C72.916 32.7816 74.2739 32.2742 75.0938 32.5551C75.2962 32.6105 75.4802 32.7186 75.627 32.8684C75.7739 33.0181 75.8782 33.2042 75.9295 33.4075C76.0289 33.7662 76.0777 34.1371 76.0746 34.5094C76.0813 34.8311 76.0521 35.1305 76.038 35.5989C75.8987 40.3833 68.2067 76.3098 68.2067 76.3098C68.2067 76.3098 67.7449 78.4125 65.8473 78.5462C65.3808 78.5766 64.9131 78.5129 64.4718 78.3588C64.0306 78.2047 63.6249 77.9634 63.279 77.6493C59.4452 74.5672 46.2738 66.337 43.3635 64.5274C43.2979 64.4857 43.2419 64.4305 43.1994 64.3655C43.1569 64.3004 43.1289 64.227 43.1172 64.1501C43.0708 63.9509 43.2809 63.6953 43.2809 63.6953C43.2809 63.6953 65.0654 43.0301 65.5937 40.9185C65.6346 40.7549 65.4573 40.6806 65.2251 40.7593C63.7527 41.356 38.4523 58.5057 35.6599 60.3984C35.4567 60.4672 35.2402 60.4875 35.0277 60.4577Z" fill="url(#paint0_linear_2031_137)"/>
<path id="Vector_3" d="M34.9047 55.6965L22.3628 51.6137C22.3628 51.6137 20.8639 51.0061 21.3466 49.6283C21.4459 49.3442 21.6463 49.1024 22.2459 48.6869C25.0248 46.7516 73.6818 29.278 73.6818 29.278C73.6818 29.278 75.0557 28.8155 75.8659 29.1231C76.0664 29.1851 76.2468 29.2992 76.3886 29.4537C76.5304 29.6082 76.6286 29.7976 76.6732 30.0025C76.7608 30.3643 76.7974 30.7366 76.782 31.1085C76.7781 31.4303 76.7392 31.7285 76.7096 32.1962C76.4132 36.9736 67.545 72.6284 67.545 72.6284C67.545 72.6284 67.0143 74.7148 65.1133 74.7862C64.6461 74.8013 64.1807 74.7222 63.7448 74.5537C63.3088 74.3852 62.9113 74.1308 62.5759 73.8055C58.8454 70.5994 45.9515 61.9415 43.1023 60.0374C43.0381 59.9937 42.9839 59.9367 42.9436 59.8702C42.9033 59.8038 42.8777 59.7295 42.8685 59.6523C42.8287 59.4517 43.0471 59.2031 43.0471 59.2031C43.0471 59.2031 65.4988 39.2636 66.0962 37.1704C66.1424 37.0082 65.9677 36.9282 65.733 36.9992C64.2418 37.5474 38.3915 53.8579 35.5385 55.658C35.3331 55.7201 35.1161 55.7333 34.9047 55.6965Z" fill="url(#paint1_linear_2031_137)"/>
</g>
<defs>
<linearGradient id="paint0_linear_2031_137" x1="69.0234" y1="85.4111" x2="54.6381" y2="27.5618" gradientUnits="userSpaceOnUse">
<stop/>
<stop offset="0.5" stop-color="white"/>
<stop offset="1"/>
</linearGradient>
<linearGradient id="paint1_linear_2031_137" x1="20.8385" y1="51.3514" x2="77.7732" y2="30.5037" gradientUnits="userSpaceOnUse">
<stop stop-color="#1F556B"/>
<stop offset="1" stop-color="#44B1D2"/>
</linearGradient>
</defs>
</svg>
