<svg preserveAspectRatio="none" width="100%" height="100%" overflow="visible" style="display: block;" viewBox="0 0 60.4971 60.4971" fill="none" xmlns="http://www.w3.org/2000/svg">
<path id="Exclude" d="M30.248 0C46.9537 0 60.4968 13.5425 60.4971 30.248C60.4971 46.9538 46.9538 60.4971 30.248 60.4971C13.5425 60.4968 0 46.9537 0 30.248C0.000257697 13.5426 13.5426 0.000257713 30.248 0ZM33.4541 18.5352C32.8109 17.8737 31.7678 17.873 31.125 18.5352C30.4821 19.1974 30.4828 20.272 31.125 20.9346L38.7959 28.8359H18.3027C17.3934 28.8362 16.6563 29.5954 16.6562 30.5322C16.6562 31.469 17.3934 32.2283 18.3027 32.2285H38.7959L31.125 40.1299C30.4827 40.7925 30.4822 41.867 31.125 42.5293C31.7678 43.1915 32.8109 43.1909 33.4541 42.5293L43.9365 31.7324C44.5796 31.0699 44.5796 29.9945 43.9365 29.332L33.4541 18.5352Z" fill="var(--fill-0, #313131)"/>
</svg>
