<svg preserveAspectRatio="none" width="100%" height="100%" overflow="visible" style="display: block;" viewBox="0 0 50 50" fill="none" xmlns="http://www.w3.org/2000/svg">
<g id="Group 125">
<path id="Rectangle 3284" d="M25 0.5C38.531 0.5 49.5 11.469 49.5 25C49.5 38.531 38.531 49.5 25 49.5C11.469 49.5 0.5 38.531 0.5 25C0.5 11.469 11.469 0.5 25 0.5Z" stroke="var(--stroke-0, white)"/>
<path id="Exclude" d="M24.791 5C35.721 5.00017 44.5811 13.861 44.5811 24.791C44.5809 35.7209 35.7209 44.5809 24.791 44.5811C13.861 44.5811 5.00017 35.721 5 24.791C5 13.8609 13.8609 5 24.791 5ZM26.8887 17.1299C26.4678 16.6969 25.7859 16.6966 25.3652 17.1299C24.9447 17.5632 24.945 18.2658 25.3652 18.6992L30.3838 23.8691H16.9756C16.3807 23.8693 15.8985 24.3657 15.8984 24.9785C15.8984 25.5914 16.3807 26.0887 16.9756 26.0889H30.3838L25.3652 31.2578C24.9449 31.6913 24.9446 32.3948 25.3652 32.8281C25.7858 33.2611 26.4679 33.2607 26.8887 32.8281L33.7471 25.7637C34.1677 25.3302 34.1678 24.6268 33.7471 24.1934L26.8887 17.1299Z" fill="var(--fill-0, white)"/>
</g>
</svg>
