<svg width="72" height="72" viewBox="0 0 72 72" fill="none" xmlns="http://www.w3.org/2000/svg">
<path d="M35.7139 0C55.4383 0 71.4287 15.9904 71.4287 35.7148C71.4286 55.4392 55.4383 71.4287 35.7139 71.4287C15.9897 71.4285 0.000103087 55.4391 0 35.7148C0 15.9905 15.9896 0.000226788 35.7139 0ZM53.5469 19.333C53.734 18.3832 52.8474 17.5907 51.9883 17.9404L11.46 34.4014C10.4603 34.8073 10.4689 36.2977 11.4717 36.6934L21.3467 40.5732L25.1689 53.5156C25.4136 54.3439 26.3769 54.6506 27.0156 54.1006L32.5205 49.376C33.0974 48.8811 33.9189 48.8569 34.5215 49.3174L44.4502 56.9062C45.1335 57.429 46.102 57.0354 46.2734 56.166L53.5469 19.333ZM43.8535 25.9932C44.2001 25.7694 44.5569 26.263 44.2588 26.5537L28.3311 42.1416C27.7711 42.6901 27.4101 43.4247 27.3076 44.2217L26.7656 48.4551C26.6933 49.02 25.9397 49.0758 25.791 48.5293L23.7041 40.8096C23.4655 39.9291 23.814 38.9884 24.5537 38.5078L43.8535 25.9932Z" fill="#44B1D2"/>
</svg>
