<svg width="72" height="72" viewBox="0 0 72 72" fill="none" xmlns="http://www.w3.org/2000/svg">
<path d="M35.7139 0C55.4383 0 71.4287 15.9904 71.4287 35.7148C71.4286 55.4392 55.4383 71.4287 35.7139 71.4287C15.9897 71.4285 0.000103087 55.4391 0 35.7148C0 15.9905 15.9896 0.000226788 35.7139 0ZM12.5 23.2129C12.8698 41.0592 21.744 51.7842 37.3018 51.7842H38.1836V41.5742C43.9003 42.1463 48.2231 46.3503 49.958 51.7842H58.0361C55.8177 43.6618 49.9863 39.1711 46.3457 37.4551C49.9862 35.3386 55.106 30.1911 56.3291 23.2129H48.9902C47.3974 28.8754 42.6773 34.0234 38.1836 34.5098V23.2129H30.8447V43.0039C26.2941 41.8598 20.549 36.3113 20.293 23.2129H12.5Z" fill="#1F556B"/>
</svg>
