<svg width="72" height="72" viewBox="0 0 72 72" fill="none" xmlns="http://www.w3.org/2000/svg">
<path d="M35.5361 0.00012207C40.2027 -0.0108914 44.8251 0.904047 49.1357 2.69153C53.4464 4.479 57.36 7.10316 60.6494 10.4132C63.9572 13.7054 66.5791 17.6214 68.3633 21.9337C70.1475 26.246 71.0587 30.8694 71.0439 35.5363C71.0364 55.1165 55.1015 71.047 35.5225 71.047H35.5088C29.1335 71.0434 22.882 69.3326 17.4297 66.0968L16.1309 65.3273L2.68652 68.8527L6.27539 55.7501L5.43066 54.4064C1.87326 48.7457 -0.00964797 42.1936 0 35.5079C0.00697031 15.9289 15.942 0.00012207 35.5361 0.00012207ZM21.3447 17.3146C20.6776 17.3146 19.594 17.5611 18.6777 18.548C17.7614 19.535 15.1758 21.9205 15.1758 26.7726C15.1758 31.6247 18.7612 36.3131 19.2607 36.9718C19.7609 37.6315 26.1813 47.9057 36.3496 51.8585C44.7996 55.1435 46.5197 54.4905 48.3545 54.3263C50.1893 54.1622 54.2729 51.9406 55.1064 49.6378C55.9394 47.3354 55.94 45.3624 55.6904 44.9493C55.4407 44.5368 54.7737 44.2915 53.7725 43.798C52.7712 43.3044 47.8534 40.9184 46.9365 40.589C46.0197 40.2597 45.3532 40.0963 44.6855 41.0831C44.0179 42.0702 42.1024 44.2911 41.5186 44.9493C40.9348 45.6072 40.3516 45.6893 39.3506 45.1964C38.3489 44.7033 35.1274 43.6612 31.3057 40.3019C28.3323 37.6881 26.3249 34.4606 25.7402 33.4738C25.1558 32.4873 25.678 31.9524 26.1797 31.4611C26.6286 31.019 27.1805 30.3091 27.6816 29.7335C28.1825 29.1581 28.3478 28.7469 28.6807 28.09C29.0137 27.4328 28.847 26.8554 28.5967 26.3624C28.3463 25.8693 26.4028 20.9917 25.5137 19.0411C24.7638 17.3991 23.975 17.3655 23.2627 17.337L21.3447 17.3146Z" fill="#A9C35C"/>
</svg>
